<svg width="188" height="36" viewBox="0 0 188 36" fill="none" xmlns="http://www.w3.org/2000/svg">
<path d="M14.4719 15.5952C14.7023 15.2042 15.1224 14.9642 15.5763 14.9642H16.6155C17.0694 14.9642 17.4895 15.2042 17.7199 15.5952L18.2165 16.4378C18.4532 16.8394 18.4532 17.3379 18.2165 17.7396L17.7199 18.5821C17.4895 18.9732 17.0694 19.2132 16.6155 19.2132H15.5763C15.1224 19.2132 14.7023 18.9732 14.4719 18.5821L13.9753 17.7396C13.7386 17.3379 13.7386 16.8394 13.9753 16.4378L14.4719 15.5952Z" fill="url(#paint0_linear_403_74)"/>
<path d="M0.298477 8.11314C0.528938 7.72211 0.948992 7.48209 1.40288 7.48209H1.69086C2.14475 7.48209 2.5648 7.72211 2.79527 8.11314L2.9162 8.31833C3.15292 8.71999 3.15292 9.21849 2.9162 9.62014L2.79527 9.82534C2.5648 10.2164 2.14475 10.4564 1.69086 10.4564H1.40288C0.948992 10.4564 0.528938 10.2164 0.298476 9.82534L0.177541 9.62014C-0.0591803 9.21849 -0.05918 8.71999 0.177541 8.31833L0.298477 8.11314Z" fill="url(#paint1_linear_403_74)"/>
<path d="M15.2994 0.418316C15.4522 0.159104 15.7306 -1.26518e-08 16.0315 0L16.0621 1.28602e-09C16.3629 1.39384e-08 16.6414 0.159104 16.7942 0.418316C16.9511 0.684568 16.9511 1.01502 16.7942 1.28128C16.6414 1.54049 16.3629 1.69959 16.0621 1.69959H16.0315C15.7306 1.69959 15.4522 1.54049 15.2994 1.28128C15.1425 1.01502 15.1425 0.684568 15.2994 0.418316Z" fill="url(#paint2_linear_403_74)"/>
<path d="M15.2994 5.81522C15.4522 5.55601 15.7306 5.3969 16.0315 5.3969H16.0621C16.3629 5.3969 16.6414 5.55601 16.7942 5.81522C16.9511 6.08147 16.9511 6.41193 16.7942 6.67818C16.6414 6.93739 16.3629 7.0965 16.0621 7.0965H16.0315C15.7306 7.0965 15.4522 6.93739 15.2994 6.67818C15.1425 6.41193 15.1425 6.08147 15.2994 5.81522Z" fill="url(#paint3_linear_403_74)"/>
<path d="M15.2994 10.9669C15.4522 10.7076 15.7306 10.5485 16.0315 10.5485H16.0621C16.3629 10.5485 16.6414 10.7076 16.7942 10.9669C16.9511 11.2331 16.9511 11.5636 16.7942 11.8298C16.6414 12.089 16.3629 12.2481 16.0621 12.2481H16.0315C15.7306 12.2481 15.4522 12.089 15.2994 11.8298C15.1425 11.5636 15.1425 11.2331 15.2994 10.9669Z" fill="url(#paint4_linear_403_74)"/>
<path d="M10.291 8.5137C10.4437 8.25449 10.7222 8.09538 11.0231 8.09538H11.0536C11.3545 8.09538 11.633 8.25449 11.7857 8.5137C11.9427 8.77995 11.9427 9.11041 11.7857 9.37666C11.633 9.63587 11.3545 9.79497 11.0536 9.79497H11.0231C10.7222 9.79497 10.4437 9.63587 10.291 9.37666C10.134 9.11041 10.134 8.77995 10.291 8.5137Z" fill="url(#paint5_linear_403_74)"/>
<path d="M5.53295 5.81522C5.68572 5.55601 5.96417 5.3969 6.26505 5.3969H6.29561C6.59649 5.3969 6.87495 5.55601 7.02772 5.81522C7.18464 6.08147 7.18464 6.41193 7.02772 6.67818C6.87495 6.93739 6.59649 7.0965 6.29561 7.0965H6.26505C5.96417 7.0965 5.68572 6.93739 5.53295 6.67818C5.37602 6.41193 5.37602 6.08147 5.53295 5.81522Z" fill="url(#paint6_linear_403_74)"/>
<path d="M10.291 3.11679C10.4437 2.85758 10.7222 2.69848 11.0231 2.69848H11.0536C11.3545 2.69848 11.633 2.85758 11.7857 3.11679C11.9427 3.38305 11.9427 3.7135 11.7857 3.97975C11.633 4.23897 11.3545 4.39807 11.0536 4.39807H11.0231C10.7222 4.39807 10.4437 4.23897 10.291 3.97975C10.134 3.7135 10.134 3.38305 10.291 3.11679Z" fill="url(#paint7_linear_403_74)"/>
<path d="M20.3078 8.5137C20.4606 8.25449 20.7391 8.09538 21.0399 8.09538H21.0705C21.3714 8.09538 21.6498 8.25449 21.8026 8.5137C21.9595 8.77995 21.9595 9.11041 21.8026 9.37666C21.6498 9.63587 21.3714 9.79497 21.0705 9.79497H21.0399C20.7391 9.79497 20.4606 9.63587 20.3078 9.37666C20.1509 9.11041 20.1509 8.77995 20.3078 8.5137Z" fill="url(#paint8_linear_403_74)"/>
<path d="M20.3078 3.11679C20.4606 2.85758 20.7391 2.69848 21.0399 2.69848H21.0705C21.3714 2.69848 21.6498 2.85758 21.8026 3.11679C21.9595 3.38305 21.9595 3.7135 21.8026 3.97975C21.6498 4.23897 21.3714 4.39807 21.0705 4.39807H21.0399C20.7391 4.39807 20.4606 4.23897 20.3078 3.97975C20.1509 3.7135 20.1509 3.38305 20.3078 3.11679Z" fill="url(#paint9_linear_403_74)"/>
<path d="M25.0658 5.81522C25.2186 5.55601 25.4971 5.3969 25.7979 5.3969H25.8285C26.1294 5.3969 26.4078 5.55601 26.5606 5.81522C26.7175 6.08147 26.7175 6.41193 26.5606 6.67818C26.4078 6.93739 26.1294 7.0965 25.8285 7.0965H25.7979C25.4971 7.0965 25.2186 6.93739 25.0658 6.67818C24.9089 6.41193 24.9089 6.08147 25.0658 5.81522Z" fill="url(#paint10_linear_403_74)"/>
<path d="M0.298476 13.51C0.528938 13.119 0.948992 12.879 1.40288 12.879H1.69086C2.14475 12.879 2.5648 13.119 2.79527 13.51L2.9162 13.7152C3.15292 14.1169 3.15292 14.6154 2.9162 15.017L2.79527 15.2222C2.5648 15.6133 2.14475 15.8533 1.69086 15.8533H1.40288C0.948992 15.8533 0.528938 15.6133 0.298476 15.2222L0.177541 15.017C-0.0591803 14.6154 -0.0591799 14.1169 0.177542 13.7152L0.298476 13.51Z" fill="url(#paint11_linear_403_74)"/>
<path d="M0.298476 18.907C0.528938 18.516 0.948992 18.276 1.40288 18.276H1.69086C2.14475 18.276 2.5648 18.516 2.79527 18.907L2.9162 19.1122C3.15292 19.5138 3.15292 20.0124 2.9162 20.414L2.79527 20.6192C2.5648 21.0102 2.14475 21.2502 1.69086 21.2502H1.40288C0.948992 21.2502 0.528938 21.0102 0.298476 20.6192L0.177542 20.414C-0.0591796 20.0124 -0.0591798 19.5138 0.177542 19.1122L0.298476 18.907Z" fill="url(#paint12_linear_403_74)"/>
<path d="M0.298476 24.3039C0.528938 23.9129 0.948993 23.6729 1.40288 23.6729H1.69086C2.14475 23.6729 2.5648 23.9129 2.79527 24.3039L2.9162 24.5091C3.15292 24.9108 3.15292 25.4093 2.9162 25.8109L2.79527 26.0161C2.5648 26.4071 2.14475 26.6471 1.69086 26.6471H1.40288C0.948992 26.6471 0.528938 26.4071 0.298476 26.0161L0.177541 25.8109C-0.0591803 25.4093 -0.0591803 24.9108 0.177541 24.5091L0.298476 24.3039Z" fill="url(#paint13_linear_403_74)"/>
<path d="M5.05649 10.8116C5.28695 10.4206 5.70701 10.1806 6.1609 10.1806H6.44887C6.90276 10.1806 7.32282 10.4206 7.55328 10.8116L7.67422 11.0168C7.91094 11.4185 7.91094 11.917 7.67422 12.3186L7.55328 12.5238C7.32282 12.9148 6.90276 13.1549 6.44887 13.1549H6.1609C5.70701 13.1549 5.28695 12.9148 5.05649 12.5238L4.93556 12.3186C4.69883 11.917 4.69883 11.4185 4.93556 11.0168L5.05649 10.8116Z" fill="url(#paint14_linear_403_74)"/>
<path d="M5.05649 16.2085C5.28695 15.8175 5.70701 15.5775 6.1609 15.5775H6.44887C6.90276 15.5775 7.32282 15.8175 7.55328 16.2085L7.67421 16.4137C7.91094 16.8154 7.91094 17.3139 7.67421 17.7155L7.55328 17.9207C7.32282 18.3117 6.90276 18.5518 6.44887 18.5518H6.1609C5.70701 18.5518 5.28695 18.3117 5.05649 17.9207L4.93556 17.7155C4.69883 17.3139 4.69883 16.8154 4.93556 16.4137L5.05649 16.2085Z" fill="url(#paint15_linear_403_74)"/>
<path d="M5.05649 21.6055C5.28695 21.2144 5.70701 20.9744 6.1609 20.9744H6.44887C6.90276 20.9744 7.32282 21.2144 7.55328 21.6055L7.67421 21.8107C7.91094 22.2123 7.91094 22.7108 7.67421 23.1125L7.55328 23.3177C7.32282 23.7087 6.90276 23.9487 6.44887 23.9487H6.1609C5.70701 23.9487 5.28695 23.7087 5.05649 23.3177L4.93556 23.1125C4.69883 22.7108 4.69883 22.2123 4.93556 21.8107L5.05649 21.6055Z" fill="url(#paint16_linear_403_74)"/>
<path d="M5.05649 27.0024C5.28695 26.6114 5.70701 26.3713 6.1609 26.3713H6.44887C6.90276 26.3713 7.32282 26.6114 7.55328 27.0024L7.67421 27.2076C7.91094 27.6092 7.91094 28.1077 7.67421 28.5094L7.55328 28.7146C7.32282 29.1056 6.90276 29.3456 6.44887 29.3456H6.1609C5.70701 29.3456 5.28695 29.1056 5.05649 28.7146L4.93556 28.5094C4.69883 28.1077 4.69883 27.6092 4.93556 27.2076L5.05649 27.0024Z" fill="url(#paint17_linear_403_74)"/>
<path d="M9.81451 13.7554C10.045 13.3643 10.465 13.1243 10.9189 13.1243H11.2069C11.6608 13.1243 12.0808 13.3643 12.3113 13.7554L12.4322 13.9606C12.669 14.3622 12.669 14.8607 12.4322 15.2624L12.3113 15.4676C12.0808 15.8586 11.6608 16.0986 11.2069 16.0986H10.9189C10.465 16.0986 10.045 15.8586 9.81451 15.4676L9.69357 15.2624C9.45685 14.8607 9.45685 14.3622 9.69357 13.9606L9.81451 13.7554Z" fill="url(#paint18_linear_403_74)"/>
<path d="M9.81451 19.1523C10.045 18.7613 10.465 18.5213 10.9189 18.5213H11.2069C11.6608 18.5213 12.0808 18.7613 12.3113 19.1523L12.4322 19.3575C12.669 19.7592 12.669 20.2577 12.4322 20.6593L12.3113 20.8645C12.0808 21.2555 11.6608 21.4956 11.2069 21.4956H10.9189C10.465 21.4956 10.045 21.2555 9.81451 20.8645L9.69357 20.6593C9.45685 20.2577 9.45685 19.7592 9.69357 19.3575L9.81451 19.1523Z" fill="url(#paint19_linear_403_74)"/>
<path d="M9.81451 24.5492C10.045 24.1582 10.465 23.9182 10.9189 23.9182H11.2069C11.6608 23.9182 12.0808 24.1582 12.3113 24.5492L12.4322 24.7544C12.669 25.1561 12.669 25.6546 12.4322 26.0562L12.3113 26.2614C12.0808 26.6525 11.6608 26.8925 11.2069 26.8925H10.9189C10.465 26.8925 10.045 26.6525 9.81451 26.2614L9.69357 26.0562C9.45685 25.6546 9.45685 25.1561 9.69357 24.7544L9.81451 24.5492Z" fill="url(#paint20_linear_403_74)"/>
<path d="M9.81451 29.9462C10.045 29.5551 10.465 29.3151 10.9189 29.3151H11.2069C11.6608 29.3151 12.0808 29.5551 12.3113 29.9462L12.4322 30.1514C12.669 30.553 12.669 31.0515 12.4322 31.4532L12.3113 31.6584C12.0808 32.0494 11.6608 32.2894 11.2069 32.2894H10.9189C10.465 32.2894 10.045 32.0494 9.81451 31.6584L9.69357 31.4532C9.45685 31.0515 9.45685 30.553 9.69357 30.1514L9.81451 29.9462Z" fill="url(#paint21_linear_403_74)"/>
<path d="M14.4719 21.2375C14.7023 20.8465 15.1224 20.6065 15.5763 20.6065H16.6155C17.0694 20.6065 17.4895 20.8465 17.7199 21.2375L18.2165 22.08C18.4532 22.4817 18.4532 22.9802 18.2165 23.3819L17.7199 24.2244C17.4895 24.6154 17.0694 24.8554 16.6155 24.8554H15.5763C15.1224 24.8554 14.7023 24.6154 14.4719 24.2244L13.9753 23.3819C13.7386 22.9802 13.7386 22.4817 13.9753 22.08L14.4719 21.2375Z" fill="url(#paint22_linear_403_74)"/>
<path d="M14.4719 26.8797C14.7023 26.4887 15.1224 26.2487 15.5763 26.2487H16.6155C17.0694 26.2487 17.4895 26.4887 17.7199 26.8797L18.2165 27.7223C18.4532 28.1239 18.4532 28.6224 18.2165 29.0241L17.7199 29.8666C17.4895 30.2576 17.0694 30.4977 16.6155 30.4977H15.5763C15.1224 30.4977 14.7023 30.2576 14.4719 29.8666L13.9753 29.0241C13.7386 28.6224 13.7386 28.1239 13.9753 27.7223L14.4719 26.8797Z" fill="url(#paint23_linear_403_74)"/>
<path d="M14.4719 32.2766C14.7023 31.8856 15.1224 31.6456 15.5763 31.6456H16.6155C17.0694 31.6456 17.4895 31.8856 17.7199 32.2766L18.2165 33.1192C18.4532 33.5208 18.4532 34.0193 18.2165 34.421L17.7199 35.2635C17.4895 35.6545 17.0694 35.8946 16.6155 35.8946H15.5763C15.1224 35.8946 14.7023 35.6545 14.4719 35.2635L13.9753 34.421C13.7386 34.0193 13.7386 33.5208 13.9753 33.1192L14.4719 32.2766Z" fill="url(#paint24_linear_403_74)"/>
<path d="M19.4803 12.6515C19.7108 12.2605 20.1308 12.0204 20.5847 12.0204H21.624C22.0778 12.0204 22.4979 12.2605 22.7284 12.6515L23.2249 13.494C23.4616 13.8957 23.4616 14.3942 23.2249 14.7958L22.7284 15.6384C22.4979 16.0294 22.0778 16.2694 21.624 16.2694H20.5847C20.1308 16.2694 19.7108 16.0294 19.4803 15.6384L18.9837 14.7958C18.747 14.3942 18.747 13.8957 18.9837 13.494L19.4803 12.6515Z" fill="url(#paint25_linear_403_74)"/>
<path d="M19.4803 18.2937C19.7108 17.9027 20.1308 17.6627 20.5847 17.6627H21.624C22.0778 17.6627 22.4979 17.9027 22.7284 18.2937L23.2249 19.1363C23.4616 19.5379 23.4616 20.0364 23.2249 20.4381L22.7284 21.2806C22.4979 21.6716 22.0778 21.9116 21.624 21.9116H20.5847C20.1308 21.9116 19.7108 21.6716 19.4803 21.2806L18.9837 20.4381C18.747 20.0364 18.747 19.5379 18.9837 19.1363L19.4803 18.2937Z" fill="url(#paint26_linear_403_74)"/>
<path d="M19.4803 23.9359C19.7108 23.5449 20.1308 23.3049 20.5847 23.3049H21.624C22.0778 23.3049 22.4979 23.5449 22.7284 23.9359L23.2249 24.7785C23.4616 25.1801 23.4616 25.6786 23.2249 26.0803L22.7284 26.9228C22.4979 27.3139 22.0778 27.5539 21.624 27.5539H20.5847C20.1308 27.5539 19.7108 27.3139 19.4803 26.9228L18.9837 26.0803C18.747 25.6786 18.747 25.1801 18.9837 24.7785L19.4803 23.9359Z" fill="url(#paint27_linear_403_74)"/>
<path d="M19.4803 29.3329C19.7108 28.9419 20.1308 28.7018 20.5847 28.7018H21.624C22.0778 28.7018 22.4979 28.9419 22.7284 29.3329L23.2249 30.1754C23.4616 30.5771 23.4616 31.0756 23.2249 31.4772L22.7284 32.3198C22.4979 32.7108 22.0778 32.9508 21.624 32.9508H20.5847C20.1308 32.9508 19.7108 32.7108 19.4803 32.3198L18.9837 31.4772C18.747 31.0756 18.747 30.5771 18.9837 30.1754L19.4803 29.3329Z" fill="url(#paint28_linear_403_74)"/>
<path d="M24.2383 9.7077C24.4688 9.31667 24.8888 9.07665 25.3427 9.07665H26.382C26.8359 9.07665 27.2559 9.31667 27.4864 9.7077L27.9829 10.5502C28.2197 10.9519 28.2197 11.4504 27.9829 11.852L27.4864 12.6946C27.2559 13.0856 26.8359 13.3256 26.382 13.3256H25.3427C24.8888 13.3256 24.4688 13.0856 24.2383 12.6946L23.7418 11.852C23.505 11.4504 23.505 10.9519 23.7418 10.5502L24.2383 9.7077Z" fill="url(#paint29_linear_403_74)"/>
<path d="M24.2383 15.3499C24.4688 14.9589 24.8888 14.7189 25.3427 14.7189H26.382C26.8359 14.7189 27.2559 14.9589 27.4864 15.3499L27.9829 16.1925C28.2197 16.5941 28.2197 17.0926 27.9829 17.4943L27.4864 18.3368C27.2559 18.7278 26.8359 18.9678 26.382 18.9678H25.3427C24.8888 18.9678 24.4688 18.7278 24.2383 18.3368L23.7418 17.4943C23.505 17.0926 23.505 16.5941 23.7418 16.1925L24.2383 15.3499Z" fill="url(#paint30_linear_403_74)"/>
<path d="M24.2383 20.9922C24.4688 20.6012 24.8888 20.3611 25.3427 20.3611H26.382C26.8359 20.3611 27.2559 20.6012 27.4864 20.9922L27.9829 21.8347C28.2197 22.2364 28.2197 22.7349 27.9829 23.1365L27.4864 23.9791C27.2559 24.3701 26.8359 24.6101 26.382 24.6101H25.3427C24.8888 24.6101 24.4688 24.3701 24.2383 23.9791L23.7418 23.1365C23.505 22.7349 23.505 22.2364 23.7418 21.8347L24.2383 20.9922Z" fill="url(#paint31_linear_403_74)"/>
<path d="M24.2383 26.3891C24.4688 25.9981 24.8888 25.758 25.3427 25.758H26.382C26.8359 25.758 27.2559 25.9981 27.4864 26.3891L27.9829 27.2316C28.2197 27.6333 28.2197 28.1318 27.9829 28.5334L27.4864 29.376C27.2559 29.767 26.8359 30.007 26.382 30.007H25.3427C24.8888 30.007 24.4688 29.767 24.2383 29.376L23.7418 28.5334C23.505 28.1318 23.505 27.6333 23.7418 27.2316L24.2383 26.3891Z" fill="url(#paint32_linear_403_74)"/>
<path d="M28.9963 7.00922C29.2268 6.61819 29.6469 6.37817 30.1007 6.37817H31.14C31.5939 6.37817 32.0139 6.61819 32.2444 7.00922L32.741 7.85176C32.9777 8.25341 32.9777 8.75191 32.741 9.15357L32.2444 9.99611C32.0139 10.3871 31.5939 10.6272 31.14 10.6272H30.1007C29.6469 10.6272 29.2268 10.3871 28.9963 9.99611L28.4998 9.15357C28.263 8.75191 28.263 8.25341 28.4998 7.85176L28.9963 7.00922Z" fill="url(#paint33_linear_403_74)"/>
<path d="M28.9963 12.6515C29.2268 12.2605 29.6469 12.0204 30.1007 12.0204H31.14C31.5939 12.0204 32.0139 12.2605 32.2444 12.6515L32.741 13.494C32.9777 13.8957 32.9777 14.3942 32.741 14.7958L32.2444 15.6384C32.0139 16.0294 31.5939 16.2694 31.14 16.2694H30.1007C29.6469 16.2694 29.2268 16.0294 28.9963 15.6384L28.4998 14.7958C28.263 14.3942 28.263 13.8957 28.4998 13.494L28.9963 12.6515Z" fill="url(#paint34_linear_403_74)"/>
<path d="M28.9963 18.2937C29.2268 17.9027 29.6469 17.6627 30.1007 17.6627H31.14C31.5939 17.6627 32.0139 17.9027 32.2444 18.2937L32.741 19.1363C32.9777 19.5379 32.9777 20.0364 32.741 20.4381L32.2444 21.2806C32.0139 21.6716 31.5939 21.9116 31.14 21.9116H30.1007C29.6469 21.9116 29.2268 21.6716 28.9963 21.2806L28.4998 20.4381C28.263 20.0364 28.263 19.5379 28.4998 19.1363L28.9963 18.2937Z" fill="url(#paint35_linear_403_74)"/>
<path d="M28.9963 23.6906C29.2268 23.2996 29.6469 23.0596 30.1007 23.0596H31.14C31.5939 23.0596 32.0139 23.2996 32.2444 23.6906L32.741 24.5332C32.9777 24.9348 32.9777 25.4333 32.741 25.835L32.2444 26.6775C32.0139 27.0685 31.5939 27.3085 31.14 27.3085H30.1007C29.6469 27.3085 29.2268 27.0685 28.9963 26.6775L28.4998 25.835C28.263 25.4333 28.263 24.9348 28.4998 24.5332L28.9963 23.6906Z" fill="url(#paint36_linear_403_74)"/>
<path d="M45.3582 28.2029V9.90005H50.3282V28.2029H45.3582Z" fill="url(#paint37_linear_403_74)"/>
<path d="M71.7233 28.2029H65.2384L58.5532 15.3083H58.4406C58.4823 15.7005 58.5199 16.1721 58.5532 16.7229C58.5866 17.2738 58.6158 17.8371 58.6409 18.413C58.6659 18.9805 58.6784 19.4938 58.6784 19.9528V28.2029H54.2968V9.90005H60.7566L67.4167 22.6194H67.4918C67.4668 22.2188 67.4417 21.7556 67.4167 21.2298C67.3917 20.6956 67.3666 20.1573 67.3416 19.6148C67.3249 19.0723 67.3166 18.5924 67.3166 18.1751V9.90005H71.7233V28.2029Z" fill="url(#paint38_linear_403_74)"/>
<path d="M91.4908 9.90005L85.4942 28.2029H79.6728L73.7013 9.90005H79.2597L81.751 19.1767C81.8428 19.5272 81.9471 19.9779 82.064 20.5287C82.1892 21.0712 82.3018 21.6137 82.402 22.1562C82.5105 22.6987 82.5772 23.141 82.6023 23.4832C82.6357 23.141 82.6983 22.7028 82.7901 22.1687C82.8819 21.6346 82.982 21.1004 83.0905 20.5663C83.2074 20.0238 83.3159 19.5773 83.416 19.2267L85.9574 9.90005H91.4908Z" fill="url(#paint39_linear_403_74)"/>
<path d="M104.348 28.2029H93.4813V9.90005H104.348V13.8686H98.4263V16.748H103.91V20.7165H98.4263V24.1717H104.348V28.2029Z" fill="url(#paint40_linear_403_74)"/>
<path d="M124.979 28.2029H118.494L111.809 15.3083H111.697C111.738 15.7005 111.776 16.1721 111.809 16.7229C111.843 17.2738 111.872 17.8371 111.897 18.413C111.922 18.9805 111.934 19.4938 111.934 19.9528V28.2029H107.553V9.90005H114.013L120.673 22.6194H120.748C120.723 22.2188 120.698 21.7556 120.673 21.2298C120.648 20.6956 120.623 20.1573 120.598 19.6148C120.581 19.0723 120.573 18.5924 120.573 18.1751V9.90005H124.979V28.2029Z" fill="url(#paint41_linear_403_74)"/>
<path d="M137.01 28.2029H132.065V13.9437H127.596V9.90005H141.467V13.9437H137.01V28.2029Z" fill="url(#paint42_linear_403_74)"/>
<path d="M154.95 28.2029H144.083V9.90005H154.95V13.8686H149.028V16.748H154.512V20.7165H149.028V24.1717H154.95V28.2029Z" fill="url(#paint43_linear_403_74)"/>
<path d="M170.123 22.6444C170.123 23.6376 169.872 24.5807 169.372 25.4737C168.871 26.3584 168.091 27.0762 167.031 27.627C165.979 28.1778 164.619 28.4533 162.949 28.4533C162.115 28.4533 161.38 28.4157 160.746 28.3406C160.12 28.2655 159.536 28.1444 158.993 27.9775C158.451 27.8023 157.888 27.5769 157.303 27.3015V22.8948C158.297 23.3956 159.298 23.7795 160.308 24.0466C161.318 24.3053 162.232 24.4346 163.05 24.4346C163.542 24.4346 163.943 24.3762 164.251 24.2594C164.569 24.1425 164.802 23.984 164.952 23.7837C165.103 23.575 165.178 23.3371 165.178 23.0701C165.178 22.7529 165.065 22.4858 164.84 22.2689C164.623 22.0435 164.272 21.8098 163.788 21.5678C163.304 21.3258 162.666 21.0253 161.873 20.6664C161.197 20.3493 160.583 20.0238 160.032 19.6899C159.49 19.3561 159.023 18.9763 158.63 18.5507C158.246 18.1167 157.95 17.6118 157.742 17.0359C157.533 16.46 157.429 15.7798 157.429 14.9953C157.429 13.8185 157.716 12.8337 158.292 12.0408C158.877 11.2396 159.686 10.6387 160.721 10.2381C161.764 9.83745 162.966 9.63715 164.327 9.63715C165.52 9.63715 166.592 9.77069 167.544 10.0378C168.504 10.3048 169.363 10.6095 170.123 10.9516L168.608 14.77C167.824 14.4111 167.051 14.1273 166.292 13.9187C165.533 13.7017 164.827 13.5932 164.176 13.5932C163.751 13.5932 163.4 13.6474 163.125 13.7559C162.858 13.8561 162.657 13.9938 162.524 14.169C162.399 14.3443 162.336 14.5446 162.336 14.77C162.336 15.0537 162.444 15.3083 162.661 15.5336C162.887 15.759 163.258 16.0052 163.776 16.2722C164.301 16.531 165.015 16.869 165.916 17.2863C166.809 17.6869 167.569 18.1209 168.195 18.5883C168.821 19.0473 169.297 19.6023 169.622 20.2533C169.956 20.8959 170.123 21.693 170.123 22.6444Z" fill="url(#paint44_linear_403_74)"/>
<path d="M179.487 16.6854L182.642 9.90005H188L181.978 21.0545V28.2029H176.996V21.2047L170.974 9.90005H176.357L179.487 16.6854Z" fill="url(#paint45_linear_403_74)"/>
<defs>
<linearGradient id="paint0_linear_403_74" x1="-5.74789e-06" y1="17.9473" x2="1234.35" y2="17.9471" gradientUnits="userSpaceOnUse">
<stop stop-color="#F53062"/>
<stop offset="1" stop-color="#4D0B1C"/>
</linearGradient>
<linearGradient id="paint1_linear_403_74" x1="-5.74789e-06" y1="17.9473" x2="1234.35" y2="17.9471" gradientUnits="userSpaceOnUse">
<stop stop-color="#F53062"/>
<stop offset="1" stop-color="#4D0B1C"/>
</linearGradient>
<linearGradient id="paint2_linear_403_74" x1="-5.74789e-06" y1="17.9473" x2="1234.35" y2="17.9471" gradientUnits="userSpaceOnUse">
<stop stop-color="#F53062"/>
<stop offset="1" stop-color="#4D0B1C"/>
</linearGradient>
<linearGradient id="paint3_linear_403_74" x1="-5.74789e-06" y1="17.9473" x2="1234.35" y2="17.9471" gradientUnits="userSpaceOnUse">
<stop stop-color="#F53062"/>
<stop offset="1" stop-color="#4D0B1C"/>
</linearGradient>
<linearGradient id="paint4_linear_403_74" x1="-5.74789e-06" y1="17.9473" x2="1234.35" y2="17.9471" gradientUnits="userSpaceOnUse">
<stop stop-color="#F53062"/>
<stop offset="1" stop-color="#4D0B1C"/>
</linearGradient>
<linearGradient id="paint5_linear_403_74" x1="-5.74789e-06" y1="17.9473" x2="1234.35" y2="17.9471" gradientUnits="userSpaceOnUse">
<stop stop-color="#F53062"/>
<stop offset="1" stop-color="#4D0B1C"/>
</linearGradient>
<linearGradient id="paint6_linear_403_74" x1="-5.74789e-06" y1="17.9473" x2="1234.35" y2="17.9471" gradientUnits="userSpaceOnUse">
<stop stop-color="#F53062"/>
<stop offset="1" stop-color="#4D0B1C"/>
</linearGradient>
<linearGradient id="paint7_linear_403_74" x1="-5.74789e-06" y1="17.9473" x2="1234.35" y2="17.9471" gradientUnits="userSpaceOnUse">
<stop stop-color="#F53062"/>
<stop offset="1" stop-color="#4D0B1C"/>
</linearGradient>
<linearGradient id="paint8_linear_403_74" x1="-5.74789e-06" y1="17.9473" x2="1234.35" y2="17.9471" gradientUnits="userSpaceOnUse">
<stop stop-color="#F53062"/>
<stop offset="1" stop-color="#4D0B1C"/>
</linearGradient>
<linearGradient id="paint9_linear_403_74" x1="-5.74789e-06" y1="17.9473" x2="1234.35" y2="17.9471" gradientUnits="userSpaceOnUse">
<stop stop-color="#F53062"/>
<stop offset="1" stop-color="#4D0B1C"/>
</linearGradient>
<linearGradient id="paint10_linear_403_74" x1="-5.74789e-06" y1="17.9473" x2="1234.35" y2="17.9471" gradientUnits="userSpaceOnUse">
<stop stop-color="#F53062"/>
<stop offset="1" stop-color="#4D0B1C"/>
</linearGradient>
<linearGradient id="paint11_linear_403_74" x1="-5.74789e-06" y1="17.9473" x2="1234.35" y2="17.9471" gradientUnits="userSpaceOnUse">
<stop stop-color="#F53062"/>
<stop offset="1" stop-color="#4D0B1C"/>
</linearGradient>
<linearGradient id="paint12_linear_403_74" x1="-5.74789e-06" y1="17.9473" x2="1234.35" y2="17.9471" gradientUnits="userSpaceOnUse">
<stop stop-color="#F53062"/>
<stop offset="1" stop-color="#4D0B1C"/>
</linearGradient>
<linearGradient id="paint13_linear_403_74" x1="-5.74789e-06" y1="17.9473" x2="1234.35" y2="17.9471" gradientUnits="userSpaceOnUse">
<stop stop-color="#F53062"/>
<stop offset="1" stop-color="#4D0B1C"/>
</linearGradient>
<linearGradient id="paint14_linear_403_74" x1="-5.74789e-06" y1="17.9473" x2="1234.35" y2="17.9471" gradientUnits="userSpaceOnUse">
<stop stop-color="#F53062"/>
<stop offset="1" stop-color="#4D0B1C"/>
</linearGradient>
<linearGradient id="paint15_linear_403_74" x1="-5.74789e-06" y1="17.9473" x2="1234.35" y2="17.9471" gradientUnits="userSpaceOnUse">
<stop stop-color="#F53062"/>
<stop offset="1" stop-color="#4D0B1C"/>
</linearGradient>
<linearGradient id="paint16_linear_403_74" x1="-5.74789e-06" y1="17.9473" x2="1234.35" y2="17.9471" gradientUnits="userSpaceOnUse">
<stop stop-color="#F53062"/>
<stop offset="1" stop-color="#4D0B1C"/>
</linearGradient>
<linearGradient id="paint17_linear_403_74" x1="-5.74789e-06" y1="17.9473" x2="1234.35" y2="17.9471" gradientUnits="userSpaceOnUse">
<stop stop-color="#F53062"/>
<stop offset="1" stop-color="#4D0B1C"/>
</linearGradient>
<linearGradient id="paint18_linear_403_74" x1="-5.74789e-06" y1="17.9473" x2="1234.35" y2="17.9471" gradientUnits="userSpaceOnUse">
<stop stop-color="#F53062"/>
<stop offset="1" stop-color="#4D0B1C"/>
</linearGradient>
<linearGradient id="paint19_linear_403_74" x1="-5.74789e-06" y1="17.9473" x2="1234.35" y2="17.9471" gradientUnits="userSpaceOnUse">
<stop stop-color="#F53062"/>
<stop offset="1" stop-color="#4D0B1C"/>
</linearGradient>
<linearGradient id="paint20_linear_403_74" x1="-5.74789e-06" y1="17.9473" x2="1234.35" y2="17.9471" gradientUnits="userSpaceOnUse">
<stop stop-color="#F53062"/>
<stop offset="1" stop-color="#4D0B1C"/>
</linearGradient>
<linearGradient id="paint21_linear_403_74" x1="-5.74789e-06" y1="17.9473" x2="1234.35" y2="17.9471" gradientUnits="userSpaceOnUse">
<stop stop-color="#F53062"/>
<stop offset="1" stop-color="#4D0B1C"/>
</linearGradient>
<linearGradient id="paint22_linear_403_74" x1="-5.74789e-06" y1="17.9473" x2="1234.35" y2="17.9471" gradientUnits="userSpaceOnUse">
<stop stop-color="#F53062"/>
<stop offset="1" stop-color="#4D0B1C"/>
</linearGradient>
<linearGradient id="paint23_linear_403_74" x1="-5.74789e-06" y1="17.9473" x2="1234.35" y2="17.9471" gradientUnits="userSpaceOnUse">
<stop stop-color="#F53062"/>
<stop offset="1" stop-color="#4D0B1C"/>
</linearGradient>
<linearGradient id="paint24_linear_403_74" x1="-5.74789e-06" y1="17.9473" x2="1234.35" y2="17.9471" gradientUnits="userSpaceOnUse">
<stop stop-color="#F53062"/>
<stop offset="1" stop-color="#4D0B1C"/>
</linearGradient>
<linearGradient id="paint25_linear_403_74" x1="-5.74789e-06" y1="17.9473" x2="1234.35" y2="17.9471" gradientUnits="userSpaceOnUse">
<stop stop-color="#F53062"/>
<stop offset="1" stop-color="#4D0B1C"/>
</linearGradient>
<linearGradient id="paint26_linear_403_74" x1="-5.74789e-06" y1="17.9473" x2="1234.35" y2="17.9471" gradientUnits="userSpaceOnUse">
<stop stop-color="#F53062"/>
<stop offset="1" stop-color="#4D0B1C"/>
</linearGradient>
<linearGradient id="paint27_linear_403_74" x1="-5.74789e-06" y1="17.9473" x2="1234.35" y2="17.9471" gradientUnits="userSpaceOnUse">
<stop stop-color="#F53062"/>
<stop offset="1" stop-color="#4D0B1C"/>
</linearGradient>
<linearGradient id="paint28_linear_403_74" x1="-5.74789e-06" y1="17.9473" x2="1234.35" y2="17.9471" gradientUnits="userSpaceOnUse">
<stop stop-color="#F53062"/>
<stop offset="1" stop-color="#4D0B1C"/>
</linearGradient>
<linearGradient id="paint29_linear_403_74" x1="-5.74789e-06" y1="17.9473" x2="1234.35" y2="17.9471" gradientUnits="userSpaceOnUse">
<stop stop-color="#F53062"/>
<stop offset="1" stop-color="#4D0B1C"/>
</linearGradient>
<linearGradient id="paint30_linear_403_74" x1="-5.74789e-06" y1="17.9473" x2="1234.35" y2="17.9471" gradientUnits="userSpaceOnUse">
<stop stop-color="#F53062"/>
<stop offset="1" stop-color="#4D0B1C"/>
</linearGradient>
<linearGradient id="paint31_linear_403_74" x1="-5.74789e-06" y1="17.9473" x2="1234.35" y2="17.9471" gradientUnits="userSpaceOnUse">
<stop stop-color="#F53062"/>
<stop offset="1" stop-color="#4D0B1C"/>
</linearGradient>
<linearGradient id="paint32_linear_403_74" x1="-5.74789e-06" y1="17.9473" x2="1234.35" y2="17.9471" gradientUnits="userSpaceOnUse">
<stop stop-color="#F53062"/>
<stop offset="1" stop-color="#4D0B1C"/>
</linearGradient>
<linearGradient id="paint33_linear_403_74" x1="-5.74789e-06" y1="17.9473" x2="1234.35" y2="17.9471" gradientUnits="userSpaceOnUse">
<stop stop-color="#F53062"/>
<stop offset="1" stop-color="#4D0B1C"/>
</linearGradient>
<linearGradient id="paint34_linear_403_74" x1="-5.74789e-06" y1="17.9473" x2="1234.35" y2="17.9471" gradientUnits="userSpaceOnUse">
<stop stop-color="#F53062"/>
<stop offset="1" stop-color="#4D0B1C"/>
</linearGradient>
<linearGradient id="paint35_linear_403_74" x1="-5.74789e-06" y1="17.9473" x2="1234.35" y2="17.9471" gradientUnits="userSpaceOnUse">
<stop stop-color="#F53062"/>
<stop offset="1" stop-color="#4D0B1C"/>
</linearGradient>
<linearGradient id="paint36_linear_403_74" x1="-5.74789e-06" y1="17.9473" x2="1234.35" y2="17.9471" gradientUnits="userSpaceOnUse">
<stop stop-color="#F53062"/>
<stop offset="1" stop-color="#4D0B1C"/>
</linearGradient>
<linearGradient id="paint37_linear_403_74" x1="-5.74789e-06" y1="17.9473" x2="1234.35" y2="17.9471" gradientUnits="userSpaceOnUse">
<stop stop-color="#F53062"/>
<stop offset="1" stop-color="#4D0B1C"/>
</linearGradient>
<linearGradient id="paint38_linear_403_74" x1="-5.74789e-06" y1="17.9473" x2="1234.35" y2="17.9471" gradientUnits="userSpaceOnUse">
<stop stop-color="#F53062"/>
<stop offset="1" stop-color="#4D0B1C"/>
</linearGradient>
<linearGradient id="paint39_linear_403_74" x1="-5.74789e-06" y1="17.9473" x2="1234.35" y2="17.9471" gradientUnits="userSpaceOnUse">
<stop stop-color="#F53062"/>
<stop offset="1" stop-color="#4D0B1C"/>
</linearGradient>
<linearGradient id="paint40_linear_403_74" x1="-5.74789e-06" y1="17.9473" x2="1234.35" y2="17.9471" gradientUnits="userSpaceOnUse">
<stop stop-color="#F53062"/>
<stop offset="1" stop-color="#4D0B1C"/>
</linearGradient>
<linearGradient id="paint41_linear_403_74" x1="-5.74789e-06" y1="17.9473" x2="1234.35" y2="17.9471" gradientUnits="userSpaceOnUse">
<stop stop-color="#F53062"/>
<stop offset="1" stop-color="#4D0B1C"/>
</linearGradient>
<linearGradient id="paint42_linear_403_74" x1="-5.74789e-06" y1="17.9473" x2="1234.35" y2="17.9471" gradientUnits="userSpaceOnUse">
<stop stop-color="#F53062"/>
<stop offset="1" stop-color="#4D0B1C"/>
</linearGradient>
<linearGradient id="paint43_linear_403_74" x1="-5.74789e-06" y1="17.9473" x2="1234.35" y2="17.9471" gradientUnits="userSpaceOnUse">
<stop stop-color="#F53062"/>
<stop offset="1" stop-color="#4D0B1C"/>
</linearGradient>
<linearGradient id="paint44_linear_403_74" x1="-5.74789e-06" y1="17.9473" x2="1234.35" y2="17.9471" gradientUnits="userSpaceOnUse">
<stop stop-color="#F53062"/>
<stop offset="1" stop-color="#4D0B1C"/>
</linearGradient>
<linearGradient id="paint45_linear_403_74" x1="-5.74789e-06" y1="17.9473" x2="1234.35" y2="17.9471" gradientUnits="userSpaceOnUse">
<stop stop-color="#F53062"/>
<stop offset="1" stop-color="#4D0B1C"/>
</linearGradient>
</defs>
</svg>
